<svg xmlns="http://www.w3.org/2000/svg" viewBox="0 0 460.775 460.775" fill="currentColor" role="img">
  <title>X icon</title>
  <path id="xSymbol" d="M285.08 230.397 456.218 59.27c6.076-6.077 6.076-15.911 0-21.986L423.511 4.565c-2.913-2.911-6.866-4.55-10.992-4.55-4.127 0-8.08 1.639-10.993 4.55L230.388 175.705 59.25 4.565C56.337 1.654 52.384.015 48.257.015c-4.126 0-8.08 1.639-10.992 4.55L4.558 37.284c-6.077 6.075-6.077 15.909 0 21.986l171.138 171.128L4.575 401.505c-6.074 6.077-6.074 15.911 0 21.986l32.709 32.719c2.911 2.911 6.865 4.55 10.992 4.55 4.127 0 8.08-1.639 10.994-4.55l171.117-171.12 171.118 171.12c2.913 2.911 6.866 4.55 10.993 4.55 4.128 0 8.081-1.639 10.992-4.55l32.709-32.719c6.074-6.075 6.074-15.909 0-21.986L285.08 230.397Z"/>
</svg>
